<svg width="10mm" height="10mm" viewBox="-45 -1.5 300 300" xml:space="preserve" xmlns="http://www.w3.org/2000/svg" version="1.1" xmlns:xlink="http://www.w3.org/1999/xlink"><g style="stroke-width:1.1;stroke-dasharray:none;paint-order:stroke fill markers"><circle cx="105" cy="148.5" r="150" fill="#fff"></circle><g transform="translate(30.495 -30.642)"></g><path style="fill:none;stroke:#50ae4e;stroke-width:1.49713;stroke-linecap:round;stroke-dasharray:none;stroke-opacity:1;paint-order:stroke fill markers" d="m56.901 102.437 4.417 12.56" transform="matrix(5.13639 0 0 4.45672 -234.185 -249.154)"></path><path style="fill:none;stroke:#50ae4e;stroke-width:1.49713;stroke-linecap:round;stroke-linejoin:round;stroke-dasharray:none;stroke-opacity:1;paint-order:stroke fill markers" d="M58.754 101.812s7.222 3.188 8.295-2.863c1.074-6.05-2.407-11.288-2.407-11.288L62.3 84.376s-.195 3.968-2.472 4.847c-2.277.878-5.172.162-5.172.162s2.83-1.919 2.44-3.936-3.97 2.993-3.97 2.993l-2.862-2.05s4.522-.585 5.303-2.7c.78-2.114-4.62 2.245-5.53 1.562s-3.546-3.253-2.212-3.285 5.27.26 5.595-.553-1.822-.976-4.652-.52-2.115-2.733-2.115-2.733 3.546 2.44 4.067.325c.52-2.114-3.806-1.236-3.806-1.236s-1.106.228-.293-1.301c.813-1.53-.13-4.262-.13-4.262s4.521.586 5.302-.292c.78-.879.768-.146.768-.146s.17 1.939.403 2.567c.319.861 2.082 3.239 2.082 2.458s-1.171-5.237-1.171-5.237-.423-1.171.878-.586 2.895.098 2.44 1.79c-.455 1.69.13 3.935.13 3.935s.748 1.562 1.334-.065c.585-1.626-.78-4.912-.78-4.912s0-.325.65.163 3.09 2.017 3.09 2.017.976.813.195 1.691-3.123 5.01-.195 3.513.78-4.814.78-4.814 2.839 2.445 3.449 5.075c.68 2.932-2.336 5.806-3.513 5.53-3.42-.802-10.442-8.62-10.442-8.62s9.596 6.57 10.507 8.62" transform="matrix(5.13639 0 0 4.45672 -234.185 -249.154)"></path><path style="fill:none;stroke:#357b49;stroke-width:1.49713;stroke-linecap:round;stroke-linejoin:round;stroke-dasharray:none;stroke-opacity:1;paint-order:stroke fill markers" d="M64.584 100.413s-12.922 1.13-5.107 3.036c7.442 1.815 14.952-.506 14.952-.506s2.967-1.444-2.393-2.346c-5.428-.914-7.13.52-7.498-6.854-.377-7.545 6.762-16.746 6.762-16.746s-7.038 1.656-5.704-5.244c0 0 .92-3.727 2.622-5.015s1.288-1.242 1.288-1.242 0 6.44 2.208 5.567-1.426-4.6-1.426-4.6-.966-1.335.874-1.887 4.003-1.426 4.003-1.426-1.978 5.705.414 5.474.552-4.6.552-4.6-.46-2.116 1.472-1.794 6.532 0 6.532 0 .727 3.835.874 4.416c.078.307.277 2.347-1.334 1.886-1.61-.46-4.83 1.289-2.254 2.3 2.576 1.013 4.049-1.885 4.049-1.885s1.38 5.014-1.795 4.554-6.44-2.346-4.462.552 5.428-.184 5.428-.184.46 4.324-2.484 3.404-4.186-1.886-4.186-1.886-1.978-.506-.828 1.15 5.474 2.162 5.474 2.162l-2.576 2.162s-1.104.737-1.794-.506a5 5 0 0 0-1.84-1.84s-2.438-.368-.414 1.886 3.22 1.105 3.22 1.105.092 2.76-5.658 1.472.926-10.305 1.616-11.18c.69-.873 3.165-3.581 3.165-3.581s3.73-3.41.831.776-8.097 8.28-8.097 8.28" transform="matrix(5.13639 0 0 4.45672 -234.185 -249.154)"></path><path style="fill:none;stroke:#357b49;stroke-width:1.49713;stroke-linecap:round;stroke-dasharray:none;stroke-opacity:1;paint-order:stroke fill markers" d="M75.165 103.587s-1.978 11.823-5.889 11.961c-3.91.138-5.428-.69-3.128-1.012s5.934.506 5.934.506" transform="matrix(5.13639 0 0 4.45672 -234.185 -249.154)"></path></g></svg>